<?xml version="1.0" standalone="no"?>
<!DOCTYPE svg PUBLIC "-//W3C//DTD SVG 20010904//EN"
 "http://www.w3.org/TR/2001/REC-SVG-20010904/DTD/svg10.dtd">
<svg version="1.0" xmlns="http://www.w3.org/2000/svg"
 width="200.000000pt" height="200.000000pt" viewBox="0 0 200.000000 200.000000"
 preserveAspectRatio="xMidYMid meet">
<metadata>
Created by potrace 1.11, written by Peter Selinger 2001-2013
</metadata>
<g transform="translate(0.000000,200.000000) scale(0.100000,-0.100000)"
fill="#000000" stroke="none">
<path d="M987 1994 c-2 -3 -13 -6 -23 -9 -25 -5 -94 -30 -142 -51 -20 -9 -48
-21 -62 -26 -14 -6 -37 -17 -51 -24 -14 -7 -29 -11 -33 -7 -3 3 -6 1 -6 -5 0
-7 -4 -12 -10 -12 -24 0 -298 -144 -425 -223 -149 -93 -174 -119 -190 -202 -5
-22 -10 -47 -11 -55 -37 -182 -38 -687 -3 -824 11 -42 54 -88 129 -139 25 -17
47 -34 48 -39 2 -4 7 -8 12 -8 4 0 57 -30 116 -67 133 -81 399 -218 513 -263
108 -43 161 -45 233 -9 10 5 22 9 28 9 6 0 29 8 53 19 23 10 71 31 107 46 87
37 306 148 408 207 46 26 87 48 92 48 5 0 10 3 12 8 2 4 23 21 48 37 111 74
111 74 145 272 22 126 25 571 6 704 -11 73 -17 91 -44 120 -38 41 -117 100
-207 155 -36 21 -66 42 -68 47 -2 4 -7 7 -12 7 -5 0 -51 25 -104 55 -52 30
-98 55 -101 55 -4 0 -21 10 -38 22 -18 13 -34 23 -37 22 -3 0 -45 18 -95 41
-135 63 -199 86 -243 90 -23 2 -43 1 -45 -1z"/>
</g>
</svg>
